<?xml version="1.0" standalone="no"?>
<!DOCTYPE svg PUBLIC "-//W3C//DTD SVG 20010904//EN"
 "http://www.w3.org/TR/2001/REC-SVG-20010904/DTD/svg10.dtd">
<svg version="1.0" xmlns="http://www.w3.org/2000/svg"
 width="395.000000pt" height="395.000000pt" viewBox="0 0 395.000000 395.000000"
 preserveAspectRatio="xMidYMid meet">
<metadata>
Created by potrace 1.14, written by Peter Selinger 2001-2017
</metadata>
<g transform="translate(0.000000,395.000000) scale(0.100000,-0.100000)"
fill="#000000" stroke="none">
<path d="M807 3678 c-3 -24 -9 -84 -13 -135 -4 -51 -10 -90 -15 -87 -4 2 -33
-44 -63 -103 -30 -60 -78 -137 -107 -172 -40 -50 -49 -68 -42 -80 6 -9 17 -17
25 -19 13 -2 79 68 177 188 l20 25 1 -47 c0 -38 6 -54 28 -79 37 -42 67 -35
133 31 27 27 49 46 49 43 0 -4 -6 -43 -14 -87 -17 -95 -26 -176 -19 -176 20 0
104 59 108 75 2 11 6 67 9 125 5 114 33 258 71 371 14 40 25 76 25 81 0 4 -16
8 -35 8 l-34 0 -32 -102 c-50 -168 -59 -187 -109 -246 -65 -79 -79 -90 -91
-71 -14 22 -11 151 7 292 l16 129 -38 39 c-21 21 -41 39 -45 39 -3 0 -9 -19
-12 -42z"/>
<path d="M2272 3620 c-81 -58 -167 -201 -198 -326 -13 -52 -26 -78 -52 -106
-20 -21 -37 -36 -40 -34 -2 2 2 23 9 45 10 34 10 46 -1 67 l-14 25 -53 -56
c-48 -50 -83 -70 -83 -46 0 16 47 66 89 96 33 22 39 31 30 41 -6 8 -19 14 -28
14 -25 0 -102 -52 -134 -89 -32 -38 -105 -101 -117 -101 -5 0 3 32 18 71 l26
72 -23 18 c-33 27 -50 24 -93 -17 -28 -28 -36 -32 -32 -17 4 15 -3 26 -28 41
-18 12 -36 18 -39 14 -4 -4 -14 -31 -24 -59 -12 -37 -28 -63 -58 -88 -22 -19
-44 -35 -49 -35 -9 0 -1 43 12 70 4 8 5 22 2 30 -12 37 -22 36 -74 -12 -65
-62 -88 -75 -88 -51 0 10 27 43 60 74 51 49 57 59 44 69 -33 28 -144 -51 -184
-130 -24 -47 -25 -73 -5 -90 21 -17 56 -6 109 35 l45 34 -5 -28 c-5 -24 -1
-32 19 -46 28 -18 44 -14 105 32 30 22 32 23 32 5 0 -18 38 -52 58 -52 4 0 19
24 34 53 25 52 77 122 84 114 2 -2 -5 -30 -16 -62 -24 -69 -23 -60 -4 -79 23
-24 56 -19 102 14 39 28 41 28 44 8 8 -52 60 -48 126 8 l43 36 -20 -52 c-11
-29 -21 -53 -23 -55 -2 -1 -28 -20 -59 -43 -31 -22 -63 -47 -71 -55 -8 -8 -34
-18 -59 -22 -66 -11 -209 -60 -281 -96 -115 -57 -222 -136 -314 -231 -153
-158 -250 -337 -300 -553 -28 -121 -26 -369 4 -489 74 -294 235 -531 466 -688
151 -103 341 -179 451 -182 47 -1 50 1 50 23 0 22 -7 26 -80 42 -375 82 -677
355 -799 724 -86 263 -71 524 46 775 51 109 88 169 160 253 130 152 293 263
484 326 104 35 136 38 155 15 9 -11 22 -14 43 -10 17 4 36 7 43 8 7 1 11 4 10
7 0 3 16 24 37 46 20 22 53 72 71 110 21 44 49 82 73 102 l38 31 28 -34 c33
-42 62 -44 116 -8 l40 27 21 -27 c31 -40 108 -30 148 18 8 9 24 16 38 16 33 0
61 15 105 58 21 20 40 33 44 30 3 -4 -3 -32 -12 -63 -18 -56 -18 -57 1 -71 29
-21 57 -17 103 17 39 29 42 29 42 10 0 -22 27 -41 57 -41 11 0 34 11 53 25
l33 25 11 -23 c17 -33 47 -32 104 7 52 35 52 35 52 11 0 -15 10 -31 24 -40 27
-18 43 -13 104 33 30 23 32 23 32 4 0 -18 38 -52 57 -52 4 0 23 29 41 64 18
35 43 73 57 86 l24 22 -19 -61 c-11 -33 -17 -68 -14 -76 8 -20 50 -30 77 -17
35 16 117 86 117 100 0 21 -20 14 -63 -23 -22 -19 -44 -35 -49 -35 -4 0 4 32
19 72 l26 71 -22 19 c-33 26 -50 23 -94 -19 -31 -30 -38 -33 -33 -17 5 17 0
26 -26 42 -18 11 -35 19 -38 17 -4 -2 -15 -30 -26 -61 -14 -42 -30 -66 -62
-92 -23 -19 -45 -33 -48 -30 -2 3 1 23 9 46 12 34 12 43 0 67 l-15 27 -26 -31
c-31 -35 -100 -91 -114 -91 -18 0 24 60 72 102 44 38 49 47 36 57 -28 24 -106
-21 -172 -98 -37 -43 -92 -86 -100 -79 -2 3 7 35 21 71 l25 67 -22 20 c-12 11
-26 20 -30 20 -5 0 -20 -24 -33 -54 -21 -48 -94 -126 -117 -126 -11 0 -11 1
14 65 l22 58 -30 23 c-16 13 -44 39 -62 56 -36 35 -35 35 -68 -25 -14 -26 -14
-29 6 -45 l21 -17 -33 -31 c-18 -18 -43 -35 -55 -38 -20 -6 -21 -5 -11 22 9
23 8 33 -7 55 -10 15 -22 26 -28 24 -12 -4 -42 -61 -54 -101 -8 -30 -37 -55
-49 -44 -12 13 18 77 56 121 34 38 38 47 25 57 -33 28 -115 -25 -145 -94 -19
-41 -101 -107 -108 -86 -2 6 -1 36 3 67 6 48 13 62 59 112 90 98 176 230 176
271 0 15 -38 50 -53 50 -8 0 -32 -13 -55 -30z m43 -56 c-16 -40 -101 -170
-116 -180 -27 -16 59 142 104 194 28 30 30 28 12 -14z m-474 -571 c-5 -10 -23
-31 -40 -47 -42 -40 -41 -12 1 31 35 36 54 44 39 16z"/>
<path d="M2846 3462 c-27 -31 -25 -65 6 -76 23 -8 30 -7 42 10 27 36 26 54 -4
69 -25 13 -29 12 -44 -3z"/>
<path d="M2064 2945 c-10 -25 14 -43 74 -56 166 -34 325 -113 466 -230 458
-383 514 -1056 126 -1525 -135 -164 -399 -322 -583 -349 -57 -9 -91 -33 -82
-58 9 -23 33 -22 144 8 378 102 687 403 795 777 99 343 35 716 -171 993 -162
218 -371 362 -623 430 -110 29 -138 31 -146 10z"/>
<path d="M1737 2775 c-367 -70 -673 -360 -753 -715 -18 -80 -14 -103 18 -98
18 2 25 15 40 77 81 332 337 586 674 667 93 23 295 23 388 0 337 -81 593 -335
674 -667 15 -62 22 -75 40 -77 32 -5 36 18 18 98 -77 342 -358 620 -713 706
-95 23 -289 27 -386 9z"/>
<path d="M1510 2275 c-97 -32 -204 -145 -235 -249 -33 -109 -8 -252 66 -377
77 -132 203 -255 309 -301 124 -54 339 -63 470 -19 174 59 344 239 413 439 26
75 29 96 25 168 -4 67 -10 94 -36 147 -59 119 -169 196 -292 205 -86 6 -156
-10 -247 -58 l-72 -37 -91 46 c-84 41 -97 45 -178 48 -57 2 -103 -2 -132 -12z
m250 -74 c30 -12 63 -28 74 -36 18 -14 18 -15 -7 -45 -48 -57 -44 -120 14
-192 l22 -27 -179 -186 -179 -187 -28 34 c-49 58 -98 137 -125 201 -21 51 -26
79 -26 152 -1 82 2 95 29 143 36 66 111 135 168 156 57 21 166 15 237 -13z
m533 13 c61 -21 141 -93 175 -158 23 -44 27 -63 26 -136 0 -122 -49 -241 -146
-353 l-33 -38 -178 185 -178 185 30 41 c16 23 33 54 36 71 8 36 -9 90 -35 114
-11 10 -20 21 -20 25 0 8 123 66 155 73 44 10 124 6 168 -9z m-353 -126 c27
-30 26 -76 -5 -113 l-25 -30 -25 30 c-31 37 -32 81 -3 112 27 28 32 29 58 1z
m153 -420 c159 -166 174 -184 161 -199 -28 -31 -133 -80 -201 -94 -72 -15
-223 -20 -223 -7 0 4 -23 7 -50 8 -36 1 -71 11 -123 37 -126 62 -131 45 70
255 96 100 179 182 183 182 5 0 87 -82 183 -182z"/>
<path d="M981 1720 c-19 -11 -8 -85 29 -195 140 -414 568 -686 1002 -636 301
34 570 209 723 472 76 128 137 339 104 359 -26 17 -46 -8 -59 -72 -64 -330
-336 -601 -688 -684 -89 -22 -275 -22 -364 0 -351 83 -624 355 -688 684 -13
64 -33 89 -59 72z"/>
<path d="M2885 688 c-15 -12 -42 -51 -59 -88 -30 -62 -34 -66 -51 -54 -26 19
-36 18 -102 -12 -144 -64 -143 -64 -143 -31 -1 74 -86 79 -228 11 -81 -38
-102 -38 -102 -1 0 34 -23 49 -70 49 -84 -1 -189 -57 -208 -110 -10 -30 5 -83
28 -97 34 -21 126 2 172 43 10 8 38 15 65 16 43 1 50 -2 69 -29 18 -27 25 -30
77 -30 46 0 64 6 99 30 36 25 51 29 91 27 32 -2 47 -7 47 -17 0 -8 11 -22 25
-31 33 -22 85 -13 138 22 l40 27 20 -27 c10 -14 28 -26 41 -26 47 0 176 107
176 145 0 24 -24 17 -71 -20 -24 -19 -50 -35 -57 -35 -34 0 -21 59 28 121 17
20 37 53 45 73 13 31 13 36 -1 50 -21 21 -36 20 -69 -6z m-105 -193 c-17 -20
-90 -58 -97 -51 -10 10 20 37 34 32 8 -3 11 -1 8 4 -4 6 9 17 27 24 38 16 47
13 28 -9z m-674 -1 c-3 -9 -6 -20 -6 -25 0 -12 -70 -43 -77 -35 -11 11 7 37
39 56 40 24 52 25 44 4z m324 -4 c-6 -11 -7 -20 -3 -20 4 -1 -9 -10 -30 -21
-36 -19 -57 -18 -57 1 0 12 71 60 88 60 10 0 10 -5 2 -20z"/>
<path d="M1800 661 c-126 -7 -146 -14 -186 -67 -35 -45 -22 -64 27 -38 46 23
101 36 92 20 -27 -47 -47 -66 -69 -66 -17 0 -24 -6 -24 -19 0 -11 4 -23 10
-26 6 -4 1 -21 -12 -44 -31 -54 -20 -73 39 -69 48 3 48 3 66 54 l18 51 53 -5
c40 -3 56 0 70 13 30 31 16 49 -41 55 l-52 5 21 33 c19 31 24 33 58 27 43 -7
93 13 110 44 17 33 12 41 -27 39 -21 -1 -90 -4 -153 -7z"/>
<path d="M1025 641 c-159 -58 -261 -147 -253 -222 8 -81 135 -100 263 -40 81
38 135 76 135 97 0 20 -14 18 -88 -17 -72 -34 -160 -45 -183 -22 -22 22 2 65
55 101 38 25 59 32 97 32 56 0 92 26 87 63 -4 29 -47 33 -113 8z"/>
<path d="M1250 451 c-5 -11 -10 -22 -10 -25 0 -12 166 -6 178 6 30 30 13 38
-73 38 -73 0 -86 -3 -95 -19z"/>
</g>
</svg>
